<svg 
 xmlns="http://www.w3.org/2000/svg"
 xmlns:xlink="http://www.w3.org/1999/xlink"
 width="0.75in" height="0.458in">
<defs>
<linearGradient id="PSgrad_0" x1="0%" x2="0%" y1="100%" y2="0%">
  <stop offset="0%" stop-color="rgb(230,230,230)" stop-opacity="1" />
  <stop offset="100%" stop-color="rgb(245,250,251)" stop-opacity="1" />
</linearGradient>

</defs>
<path fill-rule="evenodd"  fill="rgb(255, 212, 13)"
 d="M5.500,2.500 L48.500,2.500 C50.157,2.500 51.500,4.841 51.500,7.729 L51.500,25.161 C51.500,28.050 50.157,30.391 48.500,30.391 L5.500,30.391 C3.843,30.391 2.500,28.050 2.500,25.161 L2.500,7.729 C2.500,4.841 3.843,2.500 5.500,2.500 Z"/>
<path stroke-width="1px" stroke="rgb(0, 0, 0)" fill="url(#PSgrad_0)"
 d="M5.500,2.500 L48.500,2.500 C50.157,2.500 51.500,4.841 51.500,7.729 L51.500,25.161 C51.500,28.050 50.157,30.391 48.500,30.391 L5.500,30.391 C3.843,30.391 2.500,28.050 2.500,25.161 L2.500,7.729 C2.500,4.841 3.843,2.500 5.500,2.500 Z"/>
</svg>