<svg 
 xmlns="http://www.w3.org/2000/svg"
 xmlns:xlink="http://www.w3.org/1999/xlink"
 width="0.778in" height="0.458in">
<defs>
<filter id="Filter_0">
    <feFlood flood-color="rgb(130, 130, 130)" flood-opacity="0.4" result="floodOut" />
    <feComposite operator="atop" in="floodOut" in2="SourceGraphic" result="compOut" />
    <feBlend mode="normal" in="compOut" in2="SourceGraphic" />
</filter>
<linearGradient id="PSgrad_0" x1="0%" x2="0%" y1="100%" y2="0%">
  <stop offset="0%" stop-color="rgb(230,230,230)" stop-opacity="1" />
  <stop offset="100%" stop-color="rgb(245,250,251)" stop-opacity="1" />
</linearGradient>

</defs>
<g filter="url(#Filter_0)">
<path fill-rule="evenodd"  fill="rgb(255, 212, 13)"
 d="M52.233,17.869 C51.738,18.377 48.148,24.558 46.008,28.021 C45.729,28.761 45.342,29.353 44.891,29.768 C44.710,30.034 44.572,30.220 44.492,30.297 C44.226,30.555 43.923,30.553 43.672,30.361 C43.614,30.367 43.559,30.391 43.500,30.391 L5.500,30.391 C3.843,30.391 2.500,28.050 2.500,25.161 L2.500,7.729 C2.500,4.841 3.843,2.500 5.500,2.500 L43.500,2.500 C43.637,2.500 43.769,2.539 43.901,2.570 C44.095,2.517 44.307,2.564 44.520,2.777 C44.539,2.796 44.566,2.830 44.598,2.873 C45.282,3.344 45.835,4.242 46.165,5.376 C48.241,8.820 51.576,14.514 52.233,15.177 C52.842,15.791 52.831,17.254 52.233,17.869 Z"/>
</g>
<path stroke-width="1px" stroke="rgb(0, 0, 0)" fill="url(#PSgrad_0)"
 d="M52.233,17.869 C51.738,18.377 48.148,24.558 46.008,28.021 C45.729,28.761 45.342,29.353 44.891,29.768 C44.710,30.034 44.572,30.220 44.492,30.297 C44.226,30.555 43.923,30.553 43.672,30.361 C43.614,30.367 43.559,30.391 43.500,30.391 L5.500,30.391 C3.843,30.391 2.500,28.050 2.500,25.161 L2.500,7.729 C2.500,4.841 3.843,2.500 5.500,2.500 L43.500,2.500 C43.637,2.500 43.769,2.539 43.901,2.570 C44.095,2.517 44.307,2.564 44.520,2.777 C44.539,2.796 44.566,2.830 44.598,2.873 C45.282,3.344 45.835,4.242 46.165,5.376 C48.241,8.820 51.576,14.514 52.233,15.177 C52.842,15.791 52.831,17.254 52.233,17.869 Z"/>
</svg>